Coordinates
version=1
nRows=6
nColumns=63
inDegrees=yes

Units are S.I. units (second, meters, Newtons, ...)
If the header above contains a line with 'inDegrees', this indicates whether rotational values are in degrees (yes) or radians (no).

endheader
time	pelvis_tilt	pelvis_list	pelvis_rotation	pelvis_tx	pelvis_ty	pelvis_tz	hip_flexion_r	hip_adduction_r	hip_rotation_r	knee_angle_r	knee_angle_r_beta	ankle_angle_r	subtalar_angle_r	mtp_angle_r	hip_flexion_l	hip_adduction_l	hip_rotation_l	knee_angle_l	knee_angle_l_beta	ankle_angle_l	subtalar_angle_l	mtp_angle_l	L5_S1_Flex_Ext	L5_S1_Lat_Bending	L5_S1_axial_rotation	L4_L5_Flex_Ext	L4_L5_Lat_Bending	L4_L5_axial_rotation	L3_L4_Flex_Ext	L3_L4_Lat_Bending	L3_L4_axial_rotation	L2_L3_Flex_Ext	L2_L3_Lat_Bending	L2_L3_axial_rotation	L1_L2_Flex_Ext	L1_L2_Lat_Bending	L1_L2_axial_rotation	L1_T12_Flex_Ext	L1_T12_Lat_Bending	L1_T12_axial_rotation	Abs_r3	Abs_r2	Abs_r1	Abs_t1	Abs_t2	neck_flexion	neck_bending	neck_rotation	arm_flex_r	arm_add_r	arm_rot_r	elbow_flex_r	pro_sup_r	wrist_flex_r	wrist_dev_r	arm_flex_l	arm_add_l	arm_rot_l	elbow_flex_l	pro_sup_l	wrist_flex_l	wrist_dev_l
1.745763	0.547310	-1.345799	102.094846	0.213609	0.991221	0.488241	-2.142885	1.007548	-23.417336	4.384053	0.076516	16.013257	15.210718	0.000000	-1.201858	0.108757	-4.357472	1.884212	0.032886	18.796894	7.468994	0.000000	0.096965	0.071456	-0.623678	0.180074	0.095036	-0.662658	0.159304	0.173737	-0.662658	0.110821	0.173737	-0.545719	0.090042	0.145712	-0.506739	0.055406	0.110685	-0.467759	0.692611	0.808320	-3.468712	0.000000	0.000000	27.149001	-0.814439	8.014353	12.513251	-9.107848	59.316580	49.870408	87.896374	29.803224	29.644452	14.012154	-14.020563	62.187474	56.660460	67.426352	13.376928	31.816175
1.762712	0.535666	-1.506387	101.891278	0.213917	0.990540	0.489164	-1.921964	0.937560	-23.219537	4.372991	0.076323	16.117238	15.337396	0.000000	-0.880917	0.166990	-4.570369	2.061753	0.035984	19.028545	7.499995	0.000000	0.105031	0.064913	-0.640897	0.195053	0.086335	-0.680953	0.172556	0.157830	-0.680953	0.120040	0.157830	-0.560785	0.097532	0.132371	-0.520729	0.060015	0.100551	-0.480673	0.750227	0.734313	-3.564477	0.000000	0.000000	27.211747	-0.520838	8.112055	13.066523	-9.164018	60.381190	49.737664	87.938475	29.060125	29.038885	13.957998	-13.806378	61.586867	56.267227	69.583611	14.685604	31.707955
1.779661	0.499992	-1.688775	101.664012	0.214261	0.989786	0.490250	-1.653057	0.821830	-23.051786	4.408402	0.076941	16.256475	15.547796	0.000000	-0.519365	0.253166	-4.853538	2.264648	0.039526	19.276033	7.580135	0.000000	0.112865	0.055017	-0.643673	0.209602	0.073172	-0.683902	0.185427	0.133768	-0.683902	0.128994	0.133768	-0.563214	0.104807	0.112190	-0.522984	0.064491	0.085221	-0.482755	0.806186	0.622362	-3.579914	0.000000	0.000000	27.245147	-0.210384	8.141445	13.630514	-9.236194	61.435978	49.561976	87.996511	28.192366	28.177430	13.928534	-13.534746	60.954416	55.777940	71.984690	16.033273	31.574455
1.796610	0.450651	-1.865552	101.464343	0.214569	0.988991	0.491478	-1.374457	0.688750	-22.816128	4.469996	0.078016	16.417973	15.641710	0.000000	-0.153275	0.351892	-5.135633	2.471419	0.043134	19.535856	7.712418	0.000000	0.117444	0.044025	-0.645537	0.218106	0.058553	-0.685883	0.192949	0.107042	-0.685883	0.134227	0.107042	-0.564845	0.109059	0.089775	-0.524499	0.067108	0.068194	-0.484153	0.838893	0.498017	-3.590282	0.000000	0.000000	27.249195	0.116893	8.168646	14.287253	-9.340286	62.717438	49.355421	88.057864	27.109852	26.982935	13.979405	-13.250395	60.482189	55.206722	74.093127	17.192213	31.373563
1.813559	0.380885	-2.042118	101.276810	0.214867	0.988160	0.492793	-1.080193	0.529897	-22.549344	4.560954	0.079604	16.622056	15.689358	0.000000	0.217616	0.468713	-5.485573	2.684831	0.046859	19.807217	7.960070	0.000000	0.120193	0.030196	-0.631678	0.223210	0.040161	-0.671158	0.197465	0.073419	-0.671158	0.137368	0.073419	-0.552718	0.111611	0.061576	-0.513239	0.068678	0.046774	-0.473759	0.858524	0.341584	-3.513205	0.000000	0.000000	27.232415	0.413541	8.069354	14.864832	-9.431517	63.728375	49.097170	88.123056	26.091837	25.715447	14.139398	-12.938460	60.243867	54.560834	75.855090	18.113017	31.178175
1.830508	0.296642	-2.218453	101.155307	0.215080	0.987303	0.494145	-0.776136	0.350867	-22.340493	4.682363	0.081723	16.890561	15.734942	0.000000	0.586043	0.599931	-5.792380	2.890890	0.050456	20.080671	8.256103	0.000000	0.122770	0.013654	-0.608100	0.227995	0.018160	-0.646106	0.201698	0.033199	-0.646106	0.140313	0.033199	-0.532088	0.114004	0.027844	-0.494081	0.070151	0.021151	-0.456075	0.876931	0.154462	-3.382070	0.000000	0.000000	27.180752	0.687109	7.832871	15.289007	-9.490575	64.286625	48.786926	88.203792	25.236348	24.478071	14.431351	-12.589447	60.268886	53.837478	77.527254	18.940854	30.920293
